HIERARCHY
ROOT Hips
{
  OFFSET 15.1309 95.9007 -267.661
  CHANNELS 6 Xposition Yposition Zposition Zrotation Xrotation Yrotation
  JOINT RightUpLeg
  {
    OFFSET -8.9458 -8.66707 0.101652
    CHANNELS 3 Zrotation Xrotation Yrotation
    JOINT RightLeg
    {
      OFFSET 0 -44.4227 1.3727
      CHANNELS 3 Zrotation Xrotation Yrotation
      JOINT RightFoot
      {
        OFFSET 0.253549 -42.0924 -1.46059
        CHANNELS 3 Zrotation Xrotation Yrotation
        JOINT RightToes
        {
          OFFSET 0.04 -4.41509 8.4991
          CHANNELS 3 Zrotation Xrotation Yrotation
          End Site
          {
            OFFSET -0.08 -0.137448 9.77979
          }
        }
      }
    }
  }
  JOINT Spine
  {
    OFFSET 0 11.8905 0
    CHANNELS 3 Zrotation Xrotation Yrotation
    JOINT Spine1
    {
      OFFSET 0 25.6574 0.127663
      CHANNELS 3 Zrotation Xrotation Yrotation
      JOINT HEad
      {
        OFFSET 0 8.73416 0.011341
        CHANNELS 3 Zrotation Xrotation Yrotation
        End Site
        {
          OFFSET -0.29 12.7742 2.51395
        }
      }
      JOINT LeftShoulder1
      {
        OFFSET 8.99 -0.362252 -0.22
        CHANNELS 3 Zrotation Xrotation Yrotation
        JOINT LeftArm
        {
          OFFSET 10.2827 -0.00338 0.322123
          CHANNELS 3 Zrotation Xrotation Yrotation
          JOINT LeftForeArm
          {
            OFFSET 32.7669 0.099144 -1.42434
            CHANNELS 3 Zrotation Xrotation Yrotation
            JOINT LeftHand
            {
              OFFSET 27.5643 0.085362 1.02216
              CHANNELS 3 Zrotation Xrotation Yrotation
              End Site
              {
                OFFSET 16.7443 -0.6 1.50291
              }
            }
          }
        }
      }
      JOINT RightShoulder
      {
        OFFSET -8.99 -0.362252 -0.22
        CHANNELS 3 Zrotation Xrotation Yrotation
        JOINT RightArm
        {
          OFFSET -10.2827 -0.00338 0.322123
          CHANNELS 3 Zrotation Xrotation Yrotation
          JOINT RightForeArm
          {
            OFFSET -32.8971 0.099144 -1.42434
            CHANNELS 3 Zrotation Xrotation Yrotation
            JOINT RightHand
            {
              OFFSET -27.4921 0.085362 1.02216
              CHANNELS 3 Zrotation Xrotation Yrotation
              End Site
              {
                OFFSET -16.6312 -0.6 1.50291
              }
            }
          }
        }
      }
    }
  }
  JOINT LeftUpLeg
  {
    OFFSET 8.9458 -8.66707 0.101652
    CHANNELS 3 Zrotation Xrotation Yrotation
    JOINT LeftLeg
    {
      OFFSET 0 -44.4227 1.3727
      CHANNELS 3 Zrotation Xrotation Yrotation
      JOINT LeftFoot
      {
        OFFSET -0.253549 -42.0924 -1.46059
        CHANNELS 3 Zrotation Xrotation Yrotation
        JOINT LeftToes
        {
          OFFSET -0.04 -4.41509 8.4991
          CHANNELS 3 Zrotation Xrotation Yrotation
          End Site
          {
            OFFSET 0.08 -0.047448 9.77979
          }
        }
      }
    }
  }
}
MOTION
Frames:	8
Frame Time:	0.0166667
36.2396 95.8048 -273.245 -14.037 -5.68313 -56.8816 -17.1491 -12.0716 -13.292 -0.728261 53.6545 19.7971 61.4307 4.07174 -2.19105 0.0462048 0.000533403 0.662642 2.61272 0.829568 7.64264 -0.0101412 -0.0182796 -0.0134003 7.72152 32.2002 26.9718 1.59028e-015 7.95139e-016 3.18055e-015 -132.64 -55.3078 -141.235 -50.8506 50.2707 -54.9763 4.75581 18.6971 -1.19132 22.2666 3.44549 8.96424 78.6938 -22.6747 78.5277 36.8782 40.3099 60.6315 -3.66651 19.8872 -1.25591 0.183823 -25.2195 16.2576 21.6221 20.6825 -1.2448 -25.191 -10.8492 -2.00217 -1.18446e-009 1.5602e-007 -4.87131e-009 
38.3568 95.1922 -273.895 -13.9932 -5.64368 -55.8823 -15.2827 -8.86224 -10.1547 -0.21323 45.6653 16.949 72.3132 4.57334 -3.24236 0.0462048 0.000533403 0.662642 3.77438 2.12233 7.8234 -0.0095283 -0.0186175 -0.0152772 12.0746 33.8519 22.5442 7.95139e-016 -2.38542e-015 -0 -134.295 -55.2145 -142.277 -50.9574 50.0889 -55.2126 4.72345 18.5815 -1.79832 21.9317 2.46338 9.0369 80.1468 -22.9142 79.4766 36.5386 40.1405 63.385 -1.8684 20.4501 -3.67539 0.278808 -25.5179 15.1026 20.2211 21.431 0.805607 -26.5098 -12.0126 -2.39855 -1.18446e-009 1.5602e-007 -4.87131e-009 
40.521 94.7049 -274.494 -14.041 -5.54372 -54.8635 -13.076 -4.87644 -6.66274 -0.561007 36.5648 13.0094 83.1355 5.36918 -4.99434 0.0462048 0.000533403 0.662642 4.94717 3.26953 7.87363 -0.00708032 -0.0185546 -0.0166355 16.2466 34.9414 18.4979 7.95139e-016 0 -0 -135.628 -55.0939 -143.108 -51.299 49.9613 -55.3782 4.79314 18.3138 -2.35771 21.6529 1.69883 8.91017 86.0982 -23.033 81.5236 37.5461 44.2427 62.2494 -1.26926 20.6718 -4.64854 0.307431 -25.9373 13.9659 18.8921 22.5022 2.32237 -25.9213 -13.1241 -2.56712 -1.18446e-009 1.5602e-007 -4.87131e-009 
42.7164 94.3543 -275.059 -14.2006 -5.4047 -53.8501 -10.8022 -0.0777037 -2.94096 -1.45355 26.3679 7.34578 93.7017 6.57876 -7.93077 0.0462048 0.000533403 0.662642 6.14609 4.30825 7.80114 -0.00487705 -0.0181055 -0.0178155 20.1002 35.598 14.9354 -1.59028e-015 7.95139e-016 -6.36111e-015 -136.66 -54.9101 -143.616 -51.904 49.9359 -55.4644 4.86559 17.8598 -2.79934 21.5841 1.21791 8.55378 90.1435 -22.8909 83.2404 38.6189 47.1845 61.1689 -1.20977 20.7439 -4.9572 0.420961 -26.3324 12.9145 17.6417 23.5827 3.43516 -25.7074 -13.912 -2.7395 -1.18446e-009 1.5602e-007 -4.87131e-009 
44.937 94.1027 -275.54 -14.4713 -5.27178 -52.8673 -9.56981 5.39388 0.248251 -2.03168 14.9295 -0.0294008 103.621 8.33775 -12.8811 0.0462048 0.000533403 0.662642 7.34852 5.27885 7.61417 -0.00306063 -0.0172844 -0.0191574 23.5504 35.9513 11.9133 -7.95139e-016 -2.38542e-015 -3.18055e-015 -137.382 -54.6467 -143.669 -52.7968 50.0497 -55.4625 4.97639 17.2793 -3.13407 21.7281 1.02744 7.9872 92.8352 -22.6816 84.6403 39.7394 49.372 60.3196 -1.44309 20.7388 -4.97327 0.592263 -26.6116 12.098 15.1764 25.897 4.82588 -23.6355 -14.0221 -2.58714 -1.18447e-009 1.5602e-007 -4.87131e-009 
47.2731 94.6109 -275.89 -14.8562 -5.17398 -51.9167 -8.16713 5.81843 3.19062 -1.52621 14.4943 -2.57434 94.9364 8.38663 -10.4648 0.0462048 0.000533403 0.662642 8.54197 6.21701 7.29497 -0.000888886 -0.0161058 -0.0208845 26.5604 36.1181 9.44948 7.95139e-016 -7.95139e-016 3.18055e-015 -137.732 -54.2922 -143.127 -53.9655 50.331 -55.3629 5.071 16.6378 -3.35055 22.074 1.08366 7.22544 94.5251 -22.51 85.7106 40.8827 51.0446 59.7654 -1.80368 20.7164 -4.94132 0.980685 -25.929 11.8849 12.096 26.3722 6.40246 -20.8198 -11.9652 -2.107 -1.18447e-009 1.5602e-007 -4.87131e-009 
49.569 95.0703 -276.305 -15.3673 -5.11281 -50.9979 -7.01181 4.84738 5.71214 -0.855976 17.2352 -5.01834 86.1651 7.26312 -7.29569 0.0462048 0.000533403 0.662642 9.73053 7.14519 6.82432 0.000884989 -0.0145842 -0.0227712 29.1401 36.1973 7.52821 -0 -1.59028e-015 -0 -137.641 -53.8562 -142.01 -63.0371 50.4631 -50.8433 7.59091 20.1934 -2.16778 22.623 1.30999 6.30966 95.4355 -22.4735 86.4294 42.0085 52.3418 59.5111 -2.22482 20.7426 -4.92899 2.01574 -26.3486 12.0394 9.43466 27.4284 7.25019 -18.2091 -9.86723 -1.66353 -1.18446e-009 1.5602e-007 -4.87131e-009 
51.7615 95.4386 -276.676 -16.0131 -5.08081 -50.1423 -6.35547 3.70942 7.80018 -0.510071 19.1926 -7.30653 78.4247 6.19088 -4.9453 0.0462048 0.000533403 0.662642 10.9146 8.07757 6.2155 0.00150781 -0.0127339 -0.0244842 31.3218 36.2634 6.11575 -0 0 3.18055e-015 -136.963 -53.3145 -140.316 -75.6613 48.966 -44.1875 1.99674 10.025 -4.92687 23.3553 1.62726 5.27587 95.7282 -22.6279 86.7884 43.052 53.3389 59.5409 -2.64144 20.8359 -4.97599 3.26479 -26.8917 12.1878 6.96632 29.8923 7.80674 -15.9324 -7.829 -1.28092 -1.18447e-009 1.5602e-007 -4.87131e-009 
